<svg xmlns="http://www.w3.org/2000/svg" width="32" height="24" viewBox="0 0 30 20">
    <rect width="30" height="20" fill="#de2910"/>
    <!-- Большая звезда -->
    <path fill="#ffde00" d="M5 3l.588 1.81h1.902l-1.54 1.116.587 1.81-1.537-1.122-1.538 1.122.588-1.81-1.54-1.116H4.41z"/>
    <!-- Малые звезды -->
    <!-- Маленькая звезда 1 -->
    <g transform="rotate(30 8 1.5)">
        <path fill="#ffde00" d="M8 1.5l.176 0.544h0.571l-0.462 0.335 0.176 0.544L8 2.588l-0.461 0.335 0.176-0.544-0.462-0.335h0.571z"/>
    </g>
    <!-- Маленькая звезда 2 -->
    <g transform="rotate(15 9 3)">
        <path fill="#ffde00" d="M9 3l.176 0.544h0.571l-0.462 0.335 0.176 0.544L9 4.088l-0.461 0.335 0.176-0.544-0.462-0.335h0.571z"/>
    </g>
    <!-- Маленькая звезда 3 -->
    <g transform="rotate(-10 9 5)">
        <path fill="#ffde00" d="M9 5l.176 0.544h0.571l-0.462 0.335 0.176 0.544L9 6.088l-0.461 0.335 0.176-0.544-0.462-0.335h0.571z"/>
    </g>
    <!-- Маленькая звезда 4 -->
    <g transform="rotate(-25 8 6.5)">
        <path fill="#ffde00" d="M8 6.5l.176 0.544h0.571l-0.462 0.335 0.176 0.544L8 7.588l-0.461 0.335 0.176-0.544-0.462-0.335h0.571z"/>
    </g>
</svg>
